<mxfile host="app.diagrams.net" agent="Mozilla/5.0 (Windows NT 10.0; Win64; x64; rv:131.0) Gecko/20100101 Firefox/131.0" version="24.8.0">
  <diagram name="Page-1" id="3yf-lj2kJcfVt5YnkAmP">
    <mxGraphModel dx="1430" dy="763" grid="1" gridSize="10" guides="1" tooltips="1" connect="1" arrows="1" fold="1" page="1" pageScale="1" pageWidth="850" pageHeight="1100" math="0" shadow="0">
      <root>
        <mxCell id="0" />
        <mxCell id="1" parent="0" />
        <mxCell id="FP77PSElBR2w1Ru2oWQU-10" value="" style="edgeStyle=orthogonalEdgeStyle;rounded=0;orthogonalLoop=1;jettySize=auto;html=1;" edge="1" parent="1" source="FP77PSElBR2w1Ru2oWQU-2" target="FP77PSElBR2w1Ru2oWQU-9">
          <mxGeometry relative="1" as="geometry" />
        </mxCell>
        <mxCell id="FP77PSElBR2w1Ru2oWQU-2" value="Start" style="rounded=0;whiteSpace=wrap;html=1;" vertex="1" parent="1">
          <mxGeometry x="365" y="40" width="120" height="60" as="geometry" />
        </mxCell>
        <mxCell id="FP77PSElBR2w1Ru2oWQU-14" value="" style="edgeStyle=orthogonalEdgeStyle;rounded=0;orthogonalLoop=1;jettySize=auto;html=1;" edge="1" parent="1" source="FP77PSElBR2w1Ru2oWQU-9" target="FP77PSElBR2w1Ru2oWQU-13">
          <mxGeometry relative="1" as="geometry" />
        </mxCell>
        <mxCell id="FP77PSElBR2w1Ru2oWQU-9" value="Print report" style="shape=process;whiteSpace=wrap;html=1;backgroundOutline=1;rounded=0;" vertex="1" parent="1">
          <mxGeometry x="365" y="180" width="120" height="60" as="geometry" />
        </mxCell>
        <mxCell id="FP77PSElBR2w1Ru2oWQU-16" value="" style="edgeStyle=orthogonalEdgeStyle;rounded=0;orthogonalLoop=1;jettySize=auto;html=1;" edge="1" parent="1" source="FP77PSElBR2w1Ru2oWQU-13" target="FP77PSElBR2w1Ru2oWQU-15">
          <mxGeometry relative="1" as="geometry" />
        </mxCell>
        <mxCell id="FP77PSElBR2w1Ru2oWQU-28" value="" style="edgeStyle=orthogonalEdgeStyle;rounded=0;orthogonalLoop=1;jettySize=auto;html=1;" edge="1" parent="1" source="FP77PSElBR2w1Ru2oWQU-13" target="FP77PSElBR2w1Ru2oWQU-27">
          <mxGeometry relative="1" as="geometry" />
        </mxCell>
        <mxCell id="FP77PSElBR2w1Ru2oWQU-13" value="Check sufficient resources" style="shape=process;whiteSpace=wrap;html=1;backgroundOutline=1;rounded=0;" vertex="1" parent="1">
          <mxGeometry x="365" y="320" width="120" height="60" as="geometry" />
        </mxCell>
        <mxCell id="FP77PSElBR2w1Ru2oWQU-20" value="" style="edgeStyle=orthogonalEdgeStyle;rounded=0;orthogonalLoop=1;jettySize=auto;html=1;" edge="1" parent="1" source="FP77PSElBR2w1Ru2oWQU-15" target="FP77PSElBR2w1Ru2oWQU-19">
          <mxGeometry relative="1" as="geometry" />
        </mxCell>
        <mxCell id="FP77PSElBR2w1Ru2oWQU-15" value="Process coins" style="shape=process;whiteSpace=wrap;html=1;backgroundOutline=1;rounded=0;" vertex="1" parent="1">
          <mxGeometry x="365" y="460" width="120" height="60" as="geometry" />
        </mxCell>
        <mxCell id="FP77PSElBR2w1Ru2oWQU-19" value="Check if transaction is successful" style="shape=process;whiteSpace=wrap;html=1;backgroundOutline=1;rounded=0;" vertex="1" parent="1">
          <mxGeometry x="365" y="600" width="120" height="60" as="geometry" />
        </mxCell>
        <mxCell id="FP77PSElBR2w1Ru2oWQU-24" value="Yes" style="text;html=1;align=center;verticalAlign=middle;resizable=0;points=[];autosize=1;strokeColor=none;fillColor=none;" vertex="1" parent="1">
          <mxGeometry x="440" y="398" width="40" height="30" as="geometry" />
        </mxCell>
        <mxCell id="FP77PSElBR2w1Ru2oWQU-30" value="" style="edgeStyle=orthogonalEdgeStyle;rounded=0;orthogonalLoop=1;jettySize=auto;html=1;" edge="1" parent="1" source="FP77PSElBR2w1Ru2oWQU-27" target="FP77PSElBR2w1Ru2oWQU-29">
          <mxGeometry relative="1" as="geometry" />
        </mxCell>
        <mxCell id="FP77PSElBR2w1Ru2oWQU-27" value="Display&lt;br&gt;Insufficient resources message" style="ellipse;whiteSpace=wrap;html=1;rounded=0;" vertex="1" parent="1">
          <mxGeometry x="185" y="310" width="80" height="80" as="geometry" />
        </mxCell>
        <mxCell id="FP77PSElBR2w1Ru2oWQU-29" value="End process" style="shape=parallelogram;perimeter=parallelogramPerimeter;whiteSpace=wrap;html=1;fixedSize=1;rounded=0;" vertex="1" parent="1">
          <mxGeometry x="5" y="320" width="120" height="60" as="geometry" />
        </mxCell>
        <mxCell id="FP77PSElBR2w1Ru2oWQU-31" value="No" style="text;html=1;align=center;verticalAlign=middle;resizable=0;points=[];autosize=1;strokeColor=none;fillColor=none;" vertex="1" parent="1">
          <mxGeometry x="300" y="308" width="40" height="30" as="geometry" />
        </mxCell>
      </root>
    </mxGraphModel>
  </diagram>
</mxfile>
